Coordinates
version=1
nRows=32
nColumns=22
inDegrees=yes

Units are S.I. units (second, meters, Newtons, ...)
If the header above contains a line with 'inDegrees', this indicates whether rotational values are in degrees (yes) or radians (no).

endheader
time	pelvis_tilt	pelvis_list	pelvis_rotation	pelvis_tx	pelvis_ty	pelvis_tz	hip_flexion_r	hip_adduction_r	hip_rotation_r	knee_angle_r	ankle_angle_r	subtalar_angle_r	hip_flexion_l	hip_adduction_l	hip_rotation_l	knee_angle_l	ankle_angle_l	subtalar_angle_l	lumbar_extension	lumbar_bending	lumbar_rotation
      4.55000000	      7.65164600	      6.59909236	    150.66578510	      0.99373518	      0.95756283	     -0.86569379	      8.78312185	      6.80068703	     -3.83234948	    -16.39286500	     11.94146380	     12.54304121	     25.05522068	     -3.72153498	      5.37359728	    -51.40137539	     11.25891276	     -0.06309247	     -1.04012503	      9.75925730	      0.09172550
      4.56000000	      7.64443682	      6.61603119	    151.14208803	      0.98851992	      0.95750370	     -0.86889203	      8.02178639	      6.83931305	     -4.16155285	    -15.79639790	     12.18493525	     12.49109864	     25.77992340	     -3.57882844	      4.95508029	    -49.86685308	     11.62619031	      0.17860556	     -1.05009982	      9.78807863	      0.20051599
      4.57000000	      7.62694361	      6.65747469	    151.63432798	      0.98321560	      0.95735484	     -0.87205002	      7.24521081	      6.90191119	     -4.48435946	    -15.22224304	     12.44937271	     12.44516167	     26.46868207	     -3.48095946	      4.54317189	    -48.28920918	     11.92643385	      0.44230799	     -1.07553558	      9.82691249	      0.29917391
      4.58000000	      7.61304761	      6.71247066	    152.13014187	      0.97784652	      0.95709042	     -0.87518732	      6.48182903	      6.98699124	     -4.79262916	    -14.68329990	     12.73211165	     12.39804657	     27.14093985	     -3.43279754	      4.11679252	    -46.67859407	     12.13669931	      0.65336104	     -1.09837073	      9.87107409	      0.38827616
      4.59000000	      7.60144373	      6.77261394	    152.62419845	      0.97242597	      0.95670970	     -0.87831102	      5.74726939	      7.08423903	     -5.10882561	    -14.19669384	     13.01299129	     12.33608521	     27.80026742	     -3.42959303	      3.66062019	    -45.04471792	     12.20894584	      0.73071205	     -1.11708411	      9.91173798	      0.46845871
      4.60000000	      7.57313073	      6.84148770	    153.10507263	      0.96694917	      0.95624957	     -0.88142987	      5.02274578	      7.18950597	     -5.41109173	    -13.76350641	     13.29506212	     12.23282277	     28.41671878	     -3.46470421	      3.17567965	    -43.38643374	     12.10270818	      0.63263176	     -1.15426760	      9.94164061	      0.55809991
      4.61000000	      7.51888358	      6.90649622	    153.56038998	      0.96141042	      0.95572382	     -0.88453727	      4.31267857	      7.28565099	     -5.68590195	    -13.39637316	     13.57567881	     12.04360927	     28.97749659	     -3.52269126	      2.65576443	    -41.70377474	     11.79954842	      0.19632853	     -1.21573846	      9.94775280	      0.66274106
      4.62000000	      7.49909639	      6.96753289	    153.97500457	      0.95587042	      0.95505129	     -0.88763986	      3.68367569	      7.40422466	     -5.90012172	    -13.10583965	     13.88528771	     11.78574510	     29.56181603	     -3.63108390	      2.10996171	    -40.03865327	     11.29442537	     -0.56791116	     -1.24520673	      9.95950184	      0.77706355
      4.63000000	      7.47337035	      7.01152205	    154.35494253	      0.95029128	      0.95431483	     -0.89071318	      3.10854446	      7.50467550	     -6.09760840	    -12.89971366	     14.19402699	     11.52553846	     30.11459295	     -3.74827954	      1.56170737	    -38.36796713	     10.63892152	     -1.37090781	     -1.27762420	      9.94258389	      0.92039710
      4.64000000	      7.45452659	      7.05514156	    154.69290538	      0.94468335	      0.95350971	     -0.89376361	      2.58581811	      7.60997430	     -6.25561325	    -12.76736419	     14.51134285	     11.24940171	     30.64916864	     -3.89791937	      1.00883625	    -36.71229489	      9.88131185	     -2.22671714	     -1.31057871	      9.92210927	      1.08336035
      4.65000000	      7.43001228	      7.08738495	    154.98908534	      0.93902938	      0.95265966	     -0.89681775	      2.10461039	      7.70210962	     -6.39244107	    -12.70593649	     14.83978108	     10.96046379	     31.15226349	     -4.06473958	      0.44748075	    -35.07090172	      9.08310090	     -3.04649642	     -1.35016029	      9.87429677	      1.25836667
      4.66000000	      7.39631516	      7.10610370	    155.24729386	      0.93330221	      0.95176842	     -0.89983330	      1.66325984	      7.77025265	     -6.52015358	    -12.71812160	     15.18289924	     10.66449454	     31.62188743	     -4.23693307	     -0.11124095	    -33.44971622	      8.30431418	     -3.76001988	     -1.39912375	      9.80475207	      1.44261178
      4.67000000	      7.35311962	      7.11819299	    155.47520289	      0.92747839	      0.95084925	     -0.90282779	      1.24469489	      7.82148937	     -6.65382538	    -12.78400699	     15.50636857	     10.34239249	     32.05409566	     -4.41416179	     -0.64639091	    -31.85383127	      7.60041601	     -4.42771265	     -1.45624893	      9.71689046	      1.61583913
      4.68000000	      7.29813149	      7.07412430	    155.68372620	      0.92151361	      0.94988199	     -0.90578856	      0.86549202	      7.79971743	     -6.82327399	    -12.90456432	     15.84097309	     10.07354519	     32.46225014	     -4.54225068	     -1.14861421	    -30.28258920	      7.02309679	     -4.82737177	     -1.49198902	      9.55753918	      1.78452735
      4.69000000	      7.20544862	      7.09216661	    155.86214649	      0.91546371	      0.94893979	     -0.90872213	      0.44169163	      7.81920994	     -6.95472501	    -13.06516892	     16.14229255	      9.66077193	     32.78695130	     -4.71827740	     -1.55844199	    -28.75913033	      6.56547335	     -5.51173289	     -1.60703049	      9.44287877	      1.92741999
      4.70000000	      7.10706072	      7.05381789	    156.03305953	      0.90923192	      0.94793275	     -0.91162120	      0.04520593	      7.76821452	     -7.12271285	    -13.25892474	     16.46811226	      9.33626973	     33.09232532	     -4.83436150	     -1.87373211	    -27.26989017	      6.28236037	     -5.92794251	     -1.68758479	      9.25849648	      2.06691553
      4.71000000	      7.00855463	      6.98425611	    156.21245391	      0.90287031	      0.94685334	     -0.91447362	     -0.33142629	      7.67856649	     -7.29298783	    -13.48111269	     16.81786296	      9.10317357	     33.39424595	     -4.91212125	     -2.06740719	    -25.83584103	      6.08577151	     -6.16557282	     -1.74659001	      9.03456906	      2.12873047
      4.72000000	      6.85523897	      6.95800573	    156.35224341	      0.89635468	      0.94580400	     -0.91736222	     -0.81130343	      7.61124721	     -7.36791457	    -13.66930418	     17.12369430	      8.75303699	     33.59189608	     -5.02681674	     -2.14599816	    -24.45369223	      6.03360874	     -6.67911317	     -1.88351740	      8.82461579	      2.23912502
      4.73000000	      6.75014172	      6.87314902	    156.51920790	      0.88968248	      0.94456680	     -0.92021400	     -1.21392961	      7.49748793	     -7.47729835	    -13.88987225	     17.52242861	      8.58469232	     33.85787329	     -5.09509621	     -2.09687766	    -23.15068669	      6.05025228	     -6.83799194	     -1.92332928	      8.56387705	      2.26464928
      4.74000000	      6.60931254	      6.80186765	    156.65881662	      0.88284330	      0.94330407	     -0.92309423	     -1.68529694	      7.37993835	     -7.51496639	    -14.08452615	     17.91151879	      8.41911059	     34.07126367	     -5.19336777	     -2.00052194	    -21.93448852	      6.11480539	     -7.04440957	     -2.00277703	      8.29382582	      2.31071472
      4.75000000	      6.45808390	      6.75473886	    156.75907794	      0.87584659	      0.94199245	     -0.92601993	     -2.20222857	      7.28059056	     -7.47530728	    -14.25829844	     18.26579174	      8.24515668	     34.26252096	     -5.35289746	     -1.90459944	    -20.82298702	      6.20242331	     -7.36792271	     -2.09977532	      8.03622467	      2.39133668
      4.76000000	      6.35410045	      6.68173231	    156.85504131	      0.86870331	      0.94050524	     -0.92891606	     -2.64907331	      7.16323189	     -7.45686840	    -14.48044148	     18.68593177	      8.14633373	     34.53879091	     -5.53312648	     -1.83088108	    -19.85685698	      6.27425496	     -7.48042991	     -2.12541902	      7.76635836	      2.44553090
      4.77000000	      6.23781299	      6.63252323	    156.89852587	      0.86139350	      0.93899258	     -0.93183893	     -3.13384365	      7.05639008	     -7.37521413	    -14.70355977	     19.07356303	      8.06149508	     34.80089164	     -5.79049171	     -1.87540162	    -19.01990640	      6.34388047	     -7.62872928	     -2.17312435	      7.51196456	      2.55596918
      4.78000000	      6.14063939	      6.61295241	    156.91393297	      0.85391245	      0.93741935	     -0.93474707	     -3.62484189	      6.97743695	     -7.27128052	    -14.93237088	     19.42058762	      7.99363835	     35.08343558	     -6.12143074	     -2.01016668	    -18.31192711	      6.39664432	     -7.80606697	     -2.20800742	      7.29388211	      2.68626452
      4.79000000	      6.07403657	      6.60572177	    156.88217681	      0.84628264	      0.93576560	     -0.93764713	     -4.07962986	      6.90532557	     -7.16771618	    -15.21016690	     19.76019426	      7.94395108	     35.41548729	     -6.53024392	     -2.32041007	    -17.75434016	      6.46873178	     -7.87928810	     -2.21534318	      7.10169925	      2.85861513
      4.80000000	      6.01031415	      6.62134277	    156.81663032	      0.83846414	      0.93410367	     -0.94050980	     -4.55518478	      6.84039816	     -7.03821346	    -15.48905238	     20.05490634	      7.90996125	     35.73217874	     -6.99854617	     -2.75734086	    -17.29046602	      6.55245985	     -7.91906926	     -2.22655478	      6.93580843	      3.06068439
      4.81000000	      5.96254602	      6.65274955	    156.71031495	      0.83048919	      0.93242294	     -0.94334294	     -5.03020930	      6.77753076	     -6.88610831	    -15.77173137	     20.31501382	      7.89779645	     36.04893629	     -7.52637560	     -3.32863091	    -16.91825949	      6.67897232	     -7.90569678	     -2.23217360	      6.79258039	      3.29279827
      4.82000000	      5.92728036	      6.69173986	    156.57007201	      0.82233169	      0.93074501	     -0.94611969	     -5.50874327	      6.70507787	     -6.69341876	    -16.04857102	     20.52520483	      7.92129873	     36.34864269	     -8.09319659	     -4.01503325	    -16.61209692	      6.83926420	     -7.83114764	     -2.22841115	      6.66532301	      3.55024520
      4.83000000	      5.90853375	      6.73708566	    156.40375970	      0.81399898	      0.92907492	     -0.94883079	     -5.98563497	      6.62306201	     -6.46398546	    -16.31630485	     20.68624140	      7.99336416	     36.62935235	     -8.68746457	     -4.77762361	    -16.36145117	      7.03579716	     -7.70667180	     -2.21369895	      6.55296362	      3.81901262
      4.84000000	      5.86550197	      6.76931146	    156.22761637	      0.80545347	      0.92748324	     -0.95144146	     -6.48968090	      6.49097208	     -6.22227042	    -16.58140208	     20.80452717	      8.23199262	     36.83730310	     -9.26321177	     -5.61444865	    -16.13867020	      7.24865451	     -7.38499879	     -2.21857957	      6.41963548	      4.08371023
      4.85000000	      5.90733474	      6.83693157	    156.02642159	      0.79676751	      0.92583559	     -0.95398313	     -6.92643023	      6.41622699	     -5.90726437	    -16.85530731	     20.84248568	      8.38744659	     37.08924569	     -9.89262364	     -6.40294122	    -15.98215230	      7.51061186	     -7.29276200	     -2.15650081	      6.36281706	      4.36209676
      4.86000000	      5.88923767	      6.87051011	    155.82548543	      0.78783329	      0.92434372	     -0.95639571	     -7.40084373	      6.25166739	     -5.61002022	    -17.15676246	     20.83637565	      8.82270821	     37.22067457	    -10.45529574	     -7.24599902	    -15.84131241	      7.75357652	     -6.99017992	     -2.14078753	      6.24694025	      4.63356481
